<mxfile host="app.diagrams.net" modified="2024-05-12T22:39:41.909Z" agent="Mozilla/5.0 (Windows NT 10.0; Win64; x64) AppleWebKit/537.36 (KHTML, like Gecko) Chrome/124.0.0.0 Safari/537.36" version="24.0.7" etag="b-914SUpT77wTVRrEKIp" type="github">
  <diagram name="Page-1" id="AWKUlrFxkT0d8Ofa7aTw">
    <mxGraphModel>
      <root>
        <mxCell id="0" />
        <mxCell id="1" parent="0" />
      </root>
    </mxGraphModel>
  </diagram>
</mxfile>
